:SAMPLES-PER-SECOND 30
:FULLY-SPECIFIED
:DEGREES
78
root  14.6252 37.7769 -3.56072 3.38669 71.4896 3.23638
RightUpLeg  -5.12481 9.39301 1.58676
RightLeg  30.6687 -9.09707 -11.875
RightFoot  -18.3965 0.460469 9.97113
RightToes  -1.74624e-010 -1.59028e-015 9.93923e-017
Spine  19.2345 1.8462 12.4595
Spine1  23.0689 4.47632 -0.761295
HEad  -5.22465 -17.9722 5.18886
LeftShoulder1  9.93923e-017 0 1.22299e-017
LeftArm  18.6042 48.1852 -45.8417
LeftForeArm  -16.0731 -18.626 6.02602
LeftHand  0.959556 7.53 -25.0672
RightShoulder  1.98785e-016 -4.96962e-017 1.55301e-017
RightArm  5.14312 11.2308 81.5224
RightForeArm  -50.4364 57.4128 -65.0197
RightHand  3.70044 -23.0133 -10.1444
LeftUpLeg  -27.5712 -2.66823 1.08069
LeftLeg  20.9719 6.66408 6.4582
LeftFoot  5.99396 -0.130858 0.87902
LeftToes  4.87492e-010 -9.21916e-011 1.24689e-011
79
root  15.2064 38.0013 -3.52712 5.49502 69.9649 3.2004
RightUpLeg  -7.0113 10.1506 1.33204
RightLeg  26.4216 -14.114 -12.456
RightFoot  -20.7158 0.598468 8.94813
RightToes  -1.74624e-010 -1.59028e-015 9.93923e-017
Spine  19.7293 1.88165 10.0106
Spine1  24.0852 4.4887 -1.75616
HEad  -3.54865 -17.8022 5.33006
LeftShoulder1  9.93923e-017 0 1.22299e-017
LeftArm  3.452 48.8346 -48.5771
LeftForeArm  1.67768 -11.13 -0.262132
LeftHand  0.575644 9.95342 -33.1371
RightShoulder  1.98785e-016 -4.96962e-017 1.55301e-017
RightArm  2.05199 5.29481 77.2496
RightForeArm  -43.6378 52.7985 -53.5313
RightHand  4.00267 -24.022 -10.8017
LeftUpLeg  -28.0603 -2.66489 1.00549
LeftLeg  19.6564 8.12476 6.50184
LeftFoot  5.40329 -0.117663 0.80415
LeftToes  4.87492e-010 -9.21916e-011 1.24689e-011
80
root  15.8226 38.2371 -3.46367 7.27188 69.8785 3.05118
RightUpLeg  -9.97246 8.52985 1.10449
RightLeg  25.5679 -14.5795 -12.1747
RightFoot  -20.4048 0.563155 8.82341
RightToes  -1.74624e-010 -1.59028e-015 9.93923e-017
Spine  20.0168 1.312 7.90595
Spine1  24.0533 3.62824 -2.06627
HEad  -2.4346 -16.9926 5.22038
LeftShoulder1  9.93923e-017 0 1.22299e-017
LeftArm  -2.63968 49.6412 -52.2481
LeftForeArm  6.51265 -7.05033 -1.31405
LeftHand  -0.0264583 12.5424 -37.3978
RightShoulder  1.98785e-016 -4.96962e-017 1.55301e-017
RightArm  2.25336 -1.25884 74.1074
RightForeArm  -33.8887 45.7799 -42.8773
RightHand  3.94023 -23.9877 -10.4549
LeftUpLeg  -28.1872 -3.16069 0.891556
LeftLeg  18.0148 8.64573 6.00655
LeftFoot  5.59158 -0.167706 1.10079
LeftToes  4.87492e-010 -9.21916e-011 1.24689e-011
81
root  16.4788 38.4714 -3.31161 8.72396 70.7911 3.73126
RightUpLeg  -12.5144 6.79702 0.975165
RightLeg  27.1313 -11.4727 -11.4673
RightFoot  -19.4537 0.520224 9.3606
RightToes  -1.74624e-010 -1.59028e-015 9.93923e-017
Spine  20.4799 0.666584 6.19523
Spine1  24.0865 2.4094 -1.52738
HEad  -1.89073 -16.5971 5.33702
LeftShoulder1  9.93923e-017 0 1.22299e-017
LeftArm  -4.65777 49.1862 -55.5316
LeftForeArm  7.68475 -7.16291 -1.08816
LeftHand  -0.240998 13.2616 -38.6464
RightShoulder  1.98785e-016 -4.96962e-017 1.55301e-017
RightArm  4.32148 -7.89796 70.9097
RightForeArm  -25.5768 38.2932 -35.0935
RightHand  3.83995 -23.3927 -10.5633
LeftUpLeg  -27.3145 -3.45669 0.47114
LeftLeg  16.9923 8.28799 5.49716
LeftFoot  4.62352 -0.0319807 0.274826
LeftToes  4.87492e-010 -9.21916e-011 1.24689e-011
82
root  17.1528 38.6668 -3.051 10.8121 71.9402 5.7939
RightUpLeg  -15.0469 6.25968 0.589422
RightLeg  29.8677 -7.74739 -10.7285
RightFoot  -19.0589 0.499535 9.58369
RightToes  -1.74624e-010 -1.59028e-015 9.93923e-017
Spine  20.8696 0.365006 4.69594
Spine1  24.2377 1.48726 -0.705576
HEad  -1.48685 -16.8388 5.3992
LeftShoulder1  9.93923e-017 0 1.22299e-017
LeftArm  -2.16762 47.3876 -57.252
LeftForeArm  6.14373 -10.9502 0.263001
LeftHand  0.13563 11.6069 -37.518
RightShoulder  1.98785e-016 -4.96962e-017 1.55301e-017
RightArm  6.91134 -15.1075 67.017
RightForeArm  -23.4917 33.1954 -30.6723
RightHand  3.73452 -22.7958 -10.64
LeftUpLeg  -25.8204 -4.23791 -0.225397
LeftLeg  16.2484 8.12172 5.31392
LeftFoot  2.55513 0.176529 -1.20809
LeftToes  4.87492e-010 -9.21916e-011 1.24689e-011
83
root  17.8509 38.8053 -2.71374 13.0261 72.7966 7.99814
RightUpLeg  -18.3076 6.24815 0.164582
RightLeg  33.0939 -5.20959 -10.5322
RightFoot  -19.2312 0.490036 9.14217
RightToes  -1.74624e-010 -1.59028e-015 9.93923e-017
Spine  20.7366 0.249069 3.55453
Spine1  24.1306 0.920057 -0.101496
HEad  -1.04242 -16.8354 5.06831
LeftShoulder1  9.93923e-017 0 1.22299e-017
LeftArm  8.86931 45.4681 -57.7368
LeftForeArm  -6.08498 -17.5669 5.25121
LeftHand  0.649417 9.41454 -32.9811
RightShoulder  1.98785e-016 -4.96962e-017 1.55301e-017
RightArm  8.93749 -22.8434 63.0691
RightForeArm  -27.8365 31.3369 -28.8684
RightHand  3.56423 -22.5436 -9.84137
LeftUpLeg  -24.5416 -5.6264 -0.820383
LeftLeg  16.1034 8.30773 5.85146
LeftFoot  -0.0410092 0.30794 -2.63144
LeftToes  4.87492e-010 -9.21916e-011 1.24689e-011
84
root  18.5921 38.9571 -2.31674 14.4157 73.3566 9.49055
RightUpLeg  -21.581 6.01826 -0.15231
RightLeg  35.4448 -4.13879 -10.7519
RightFoot  -19.005 0.438228 8.48549
RightToes  -1.74624e-010 -1.59028e-015 9.93923e-017
Spine  20.2232 -0.0118998 2.73686
Spine1  23.873 0.362943 0.232172
HEad  -0.515717 -15.9369 4.46121
LeftShoulder1  9.93923e-017 0 1.22299e-017
LeftArm  22.7803 43.887 -57.1108
LeftForeArm  -25.2 -23.8315 14.4887
LeftHand  0.918253 8.15866 -25.1455
RightShoulder  1.98785e-016 -4.96962e-017 1.55301e-017
RightArm  10.2372 -29.9967 60.2069
RightForeArm  -34.7992 30.5321 -27.7893
RightHand  3.47988 -22.8336 -8.92008
LeftUpLeg  -23.1351 -6.61152 -1.21353
LeftLeg  16.4553 8.12091 6.69654
LeftFoot  -3.11951 0.382081 -4.37198
LeftToes  4.87492e-010 -9.21916e-011 1.24689e-011
